<?xml version="1.0" standalone="no"?>
<!DOCTYPE svg PUBLIC "-//W3C//DTD SVG 20010904//EN"
 "http://www.w3.org/TR/2001/REC-SVG-20010904/DTD/svg10.dtd">
<svg version="1.0" xmlns="http://www.w3.org/2000/svg"
 width="1024.000000pt" height="1280.000000pt" viewBox="0 0 1024.000000 1280.000000"
 preserveAspectRatio="xMidYMid meet">

<g transform="translate(0.000000,1280.000000) scale(0.100000,-0.100000)"
fill="#000000" stroke="none">
<path d="M10208 11123 c7 -3 16 -2 19 1 4 3 -2 6 -13 5 -11 0 -14 -3 -6 -6z"/>
<path d="M10200 11063 c0 -13 5 -23 12 -23 23 0 -7 -18 -37 -23 -28 -4 -29 -5
-7 -12 12 -4 22 -12 22 -17 0 -6 -7 -8 -15 -5 -8 4 -17 1 -21 -5 -4 -7 -10 -6
-16 3 -7 10 -8 8 -3 -6 4 -11 7 -28 7 -37 0 -10 4 -18 9 -18 6 0 7 -4 4 -10
-9 -15 -25 -12 -25 5 0 9 -9 15 -22 14 -17 -1 -19 -2 -5 -6 9 -2 17 -9 17 -14
0 -5 -8 -9 -17 -10 -15 0 -15 -2 2 -9 17 -7 17 -9 3 -9 -10 -1 -18 -5 -18 -11
0 -5 7 -7 15 -4 8 4 15 2 15 -4 0 -5 -11 -13 -25 -16 -14 -4 -25 -13 -25 -22
0 -9 -9 -18 -20 -21 -15 -4 -17 -9 -10 -23 14 -26 12 -33 -5 -27 -8 4 -17 2
-20 -3 -3 -5 5 -11 17 -13 17 -3 15 -5 -9 -6 -28 -1 -60 -21 -34 -21 6 0 11
-4 11 -10 0 -5 -7 -10 -15 -10 -8 0 -15 -4 -15 -10 0 -5 11 -10 25 -10 14 0
25 -5 25 -11 0 -7 -12 -10 -30 -7 -19 3 -30 0 -30 -8 0 -6 -7 -15 -16 -18 -22
-8 -6 -28 17 -21 10 4 19 2 19 -3 0 -13 -27 -23 -45 -16 -10 4 -15 0 -15 -16
0 -11 -4 -18 -10 -15 -5 3 -12 -7 -16 -22 -4 -15 -11 -33 -16 -40 -5 -7 -7
-16 -4 -22 3 -5 3 -17 0 -26 -5 -13 -8 -14 -15 -3 -7 10 -9 9 -9 -4 0 -10 -4
-18 -10 -18 -5 0 -10 -15 -11 -32 0 -18 -3 -27 -6 -20 -9 23 -20 12 -15 -18 3
-18 0 -30 -7 -30 -6 0 -11 -7 -11 -16 0 -8 -5 -25 -11 -36 -9 -17 -13 -18 -20
-7 -6 10 -9 5 -9 -16 0 -17 6 -37 13 -44 10 -11 8 -12 -11 -6 -22 6 -23 5 -17
-17 l8 -23 -20 24 c-14 17 -22 21 -27 13 -4 -7 -2 -12 4 -12 7 0 9 -7 6 -17
-4 -9 -2 -20 4 -23 8 -5 6 -9 -4 -13 -10 -4 -16 -1 -16 9 0 8 -5 12 -10 9 -7
-4 -7 -13 0 -26 13 -23 5 -40 -15 -33 -17 7 -17 -37 0 -48 6 -5 6 -8 -2 -8 -7
0 -13 -9 -13 -20 0 -16 -7 -20 -30 -20 -16 0 -30 -5 -30 -11 0 -5 5 -7 10 -4
6 3 10 -4 10 -16 0 -12 -3 -20 -6 -16 -4 3 -13 -1 -22 -9 -13 -14 -13 -17 -1
-25 11 -7 11 -9 -3 -9 -13 0 -18 -8 -18 -31 0 -24 -4 -30 -15 -25 -10 4 -15
-1 -15 -15 0 -13 -4 -18 -12 -13 -8 5 -9 2 -5 -9 9 -24 -2 -47 -19 -40 -8 3
-14 -1 -14 -10 0 -8 -6 -18 -12 -20 -10 -4 -9 -8 2 -16 13 -9 13 -11 -2 -11
-10 0 -18 -6 -18 -13 0 -7 -6 -19 -12 -25 -7 -7 -13 -18 -13 -25 -1 -7 -6 -11
-13 -10 -7 2 -12 -4 -12 -12 0 -8 -5 -15 -11 -15 -5 0 -7 -5 -3 -11 8 -13 -16
-60 -27 -53 -5 3 -16 -11 -26 -30 -9 -20 -20 -36 -25 -36 -4 0 -8 -7 -8 -16 0
-9 -8 -23 -17 -30 -11 -8 -13 -13 -5 -14 6 0 12 -4 12 -9 0 -6 -9 -8 -21 -6
-17 4 -19 2 -8 -11 6 -8 9 -17 5 -21 -3 -3 -6 -2 -6 4 0 6 -9 9 -20 6 -11 -3
-20 -9 -20 -14 0 -5 8 -5 18 -2 15 6 15 5 3 -10 -9 -12 -17 -14 -26 -7 -8 7
-11 3 -11 -13 1 -13 -4 -21 -11 -19 -16 3 -17 -10 -1 -26 9 -9 4 -14 -20 -23
-20 -7 -34 -20 -38 -35 -3 -13 -9 -23 -13 -22 -31 4 -41 -4 -41 -31 0 -27 -3
-29 -27 -25 -24 3 -26 2 -12 -8 14 -12 13 -15 -7 -35 -12 -12 -25 -19 -28 -16
-3 4 -6 -1 -6 -10 0 -11 -8 -17 -22 -18 -13 0 -17 -3 -10 -6 21 -8 13 -20 -12
-18 -18 2 -23 -1 -19 -11 3 -8 -1 -14 -11 -14 -22 0 -20 -27 2 -34 9 -3 0 -4
-20 -3 -20 2 -35 0 -32 -4 2 -4 -4 -10 -13 -13 -15 -6 -15 -8 -3 -16 12 -8 9
-10 -11 -10 -15 0 -32 -6 -39 -14 -6 -8 -21 -17 -33 -19 -21 -4 -21 -4 2 -6
19 -1 21 -4 12 -15 -7 -8 -21 -12 -34 -8 -22 5 -22 5 -3 -16 11 -12 17 -24 14
-27 -3 -3 -11 1 -18 10 -19 23 -42 19 -38 -7 2 -13 -2 -23 -9 -23 -6 0 -14 -3
-18 -7 -4 -4 -13 -4 -21 -1 -8 3 -14 2 -14 -1 0 -4 10 -11 23 -16 20 -8 19 -9
-12 -9 -25 -1 -32 -5 -27 -16 4 -12 0 -14 -19 -9 -15 4 -25 2 -25 -5 0 -6 7
-11 15 -11 21 0 19 -23 -4 -37 -15 -10 -20 -9 -25 2 -3 9 0 12 8 9 8 -3 17 -1
21 5 3 7 -2 11 -14 11 -32 0 -35 -19 -9 -58 151 -227 177 -274 383 -667 92
-176 171 -324 175 -329 5 -4 18 -1 30 7 12 9 29 13 36 10 8 -3 14 0 14 6 0 6
7 11 15 11 8 0 15 4 15 8 0 5 18 17 40 27 22 10 40 22 40 28 0 5 7 7 15 3 8
-3 15 -1 15 4 0 5 16 17 35 26 19 9 35 21 35 26 0 5 4 7 9 4 5 -3 20 6 35 21
14 14 26 20 26 13 0 -7 13 1 30 18 16 17 43 38 60 47 16 8 30 20 30 25 0 6 8
10 18 10 10 0 33 16 52 35 19 19 41 35 48 35 6 0 12 5 12 10 0 6 6 10 13 10 8
0 22 9 32 20 10 11 23 20 30 20 6 0 17 11 25 24 7 14 24 27 37 31 17 4 23 11
19 21 -3 8 -1 12 4 9 5 -3 18 3 30 15 11 11 23 20 26 19 4 0 14 11 24 25 9 15
19 24 22 21 3 -4 15 5 26 19 11 15 26 26 33 26 11 0 11 3 -1 10 -13 8 -13 10
1 10 9 0 20 7 23 16 3 8 10 13 15 9 5 -3 12 4 16 15 3 11 9 19 13 17 10 -3 52
41 52 54 0 5 5 7 12 3 8 -5 9 -2 5 10 -4 10 -3 15 3 11 5 -3 14 3 19 14 15 27
15 2613 1 2591 -9 -13 -11 -13 -20 0 -8 12 -10 11 -10 -7z m-23 -175 c-3 -8
-6 -5 -6 6 -1 11 2 17 5 13 3 -3 4 -12 1 -19z m-71 -64 c-3 -9 -6 -18 -6 -20
0 -3 -4 -3 -10 1 -11 7 -2 35 12 35 6 0 7 -7 4 -16z m-215 -377 c-10 -9 -11
-8 -5 6 3 10 9 15 12 12 3 -3 0 -11 -7 -18z m-774 -1263 c-3 -3 -12 -4 -19 -1
-8 3 -5 6 6 6 11 1 17 -2 13 -5z"/>
<path d="M5550 10300 c-292 -19 -407 -34 -621 -79 -52 -12 -113 -23 -134 -26
-21 -2 -41 -8 -44 -12 -3 -5 -24 -9 -45 -10 -22 -2 -46 -9 -55 -16 -13 -11
-108 -39 -173 -52 -9 -2 -28 -11 -41 -20 -14 -9 -29 -15 -33 -14 -9 2 -29 -4
-79 -26 -16 -7 -68 -30 -115 -50 -47 -20 -94 -41 -105 -47 -11 -7 -47 -26 -80
-44 -33 -17 -80 -44 -105 -58 -25 -14 -52 -29 -60 -33 -8 -4 -24 -15 -34 -25
-11 -10 -25 -18 -31 -18 -6 0 -24 -13 -40 -30 -16 -16 -34 -30 -40 -30 -7 0
-34 -20 -61 -45 -27 -24 -72 -64 -101 -87 -29 -24 -52 -46 -53 -49 0 -3 -44
-50 -97 -105 -54 -55 -125 -131 -158 -169 -33 -37 -68 -75 -77 -84 -10 -8 -18
-21 -18 -28 0 -6 -8 -14 -17 -17 -10 -3 -25 -17 -33 -30 -34 -53 -131 -176
-140 -176 -6 0 -10 -6 -10 -13 0 -7 -8 -20 -17 -28 -29 -26 -61 -66 -77 -97
-8 -16 -23 -35 -32 -43 -10 -8 -37 -43 -60 -79 -23 -36 -52 -75 -63 -87 -12
-12 -21 -25 -21 -29 0 -4 -12 -23 -27 -42 -15 -20 -20 -32 -12 -28 8 4 6 1 -3
-7 -10 -8 -18 -19 -18 -24 0 -6 -7 -16 -15 -23 -8 -7 -15 -21 -15 -31 0 -11
-5 -19 -11 -19 -5 0 -17 -16 -25 -35 -8 -19 -18 -35 -22 -35 -4 0 -16 -18 -26
-40 -11 -22 -22 -40 -26 -40 -3 0 -12 -16 -19 -35 -7 -19 -19 -35 -28 -35 -9
0 -13 -6 -9 -15 3 -8 -1 -21 -9 -29 -8 -8 -15 -17 -15 -21 0 -3 -17 -41 -37
-83 -20 -42 -38 -84 -40 -94 -1 -9 -11 -31 -22 -50 -10 -18 -24 -51 -31 -73
-7 -22 -15 -44 -19 -50 -3 -5 -6 -14 -8 -20 -1 -5 -23 -68 -48 -140 -26 -71
-49 -139 -52 -150 -22 -85 -80 -194 -151 -284 l-35 -43 21 -67 c36 -112 140
-251 187 -251 30 0 67 37 115 115 169 272 266 378 415 453 92 46 218 88 223
74 2 -6 19 -14 38 -18 45 -8 52 -22 17 -35 -37 -14 -14 -29 48 -29 55 0 232
-23 389 -50 542 -93 811 -116 1005 -85 64 10 175 18 265 19 212 2 270 25 372
145 33 39 69 68 120 95 117 62 588 381 628 426 3 3 39 32 80 65 160 128 351
318 445 442 35 46 66 79 72 75 13 -8 125 -279 224 -541 38 -102 76 -198 83
-215 36 -82 55 -126 81 -183 15 -34 25 -69 22 -76 -3 -8 -37 -27 -75 -41 -205
-78 -308 -203 -319 -386 -5 -79 -3 -90 24 -150 18 -39 54 -91 89 -129 99 -107
198 -171 374 -241 166 -66 169 -68 162 -93 -5 -21 -5 -21 12 -4 22 22 33 22
15 0 -13 -15 -12 -15 8 -5 28 16 34 15 27 -2 -4 -10 0 -13 13 -10 13 4 23 -2
30 -18 7 -13 12 -17 12 -10 1 6 6 12 12 12 7 0 9 -11 6 -28 -3 -15 -1 -34 4
-42 8 -11 9 -9 4 8 -5 16 -2 22 10 22 12 0 15 -6 10 -20 -7 -21 10 -28 18 -7
4 10 6 10 6 0 1 -7 7 -13 15 -13 8 0 17 6 20 13 3 6 4 0 1 -15 -4 -23 -1 -29
20 -34 16 -4 25 -13 25 -25 0 -10 5 -19 10 -19 6 0 10 -9 10 -21 0 -11 5 -17
10 -14 6 3 10 1 10 -5 0 -6 -10 -15 -22 -21 -21 -8 -20 -9 5 -4 19 4 26 2 22
-5 -3 -5 -1 -10 4 -10 6 0 11 -7 11 -15 0 -18 16 -20 23 -2 4 8 6 7 6 -3 1
-19 -10 -35 -29 -44 -8 -3 -2 -4 14 -1 23 5 27 3 23 -9 -4 -9 -1 -16 4 -16 7
0 9 11 7 25 -3 13 -1 22 3 19 5 -3 9 -19 9 -35 0 -32 22 -63 35 -51 5 4 5 1 1
-5 -4 -8 -1 -13 8 -13 8 0 18 -5 22 -12 5 -8 2 -9 -12 -4 -10 5 -34 10 -53 11
-25 3 -31 1 -22 -8 16 -16 -46 -42 -65 -26 -10 8 -14 8 -14 1 0 -6 8 -15 17
-21 16 -8 14 -10 -10 -16 -15 -4 -24 -11 -21 -16 3 -5 -2 -6 -11 -3 -9 4 -14
13 -11 20 7 17 -6 18 -22 2 -9 -9 -12 -9 -12 0 0 6 -7 9 -15 6 -8 -4 -15 -1
-15 6 0 9 -3 10 -14 1 -10 -8 -21 -9 -42 -1 -20 8 -30 8 -32 1 -2 -6 -8 -9
-12 -6 -5 3 -6 13 -3 21 5 14 3 14 -14 6 -11 -6 -24 -7 -29 -3 -5 5 -22 11
-37 15 -22 5 -27 4 -22 -6 4 -7 -1 -4 -10 7 -14 17 -17 18 -25 5 -8 -13 -10
-13 -10 1 0 19 -26 33 -35 19 -8 -14 -45 -13 -45 1 0 6 -12 9 -27 6 -16 -2
-22 -2 -16 0 10 3 9 8 -2 19 -16 17 -40 9 -29 -8 5 -8 1 -9 -10 -5 -10 4 -22
7 -27 7 -4 0 -5 8 -2 18 6 15 5 15 -10 3 -9 -7 -17 -10 -17 -5 0 14 -54 36
-58 24 -5 -13 -32 -13 -32 1 0 5 5 7 10 4 6 -3 10 -2 10 3 0 9 -20 18 -58 27
-8 2 -11 -2 -8 -11 3 -8 1 -14 -4 -14 -6 0 -10 7 -10 15 0 14 -14 19 -47 18
-7 -1 -13 3 -13 8 0 5 -9 9 -20 9 -11 0 -20 5 -20 11 0 5 -5 7 -11 3 -6 -3
-15 0 -20 7 -5 8 -9 9 -9 3 0 -9 -11 -9 -41 -2 -29 8 -51 7 -80 -1 -22 -7 -44
-9 -49 -6 -6 3 -10 -1 -10 -9 0 -17 -26 -22 -32 -6 -2 6 -24 4 -58 -5 -65 -17
-62 -17 -57 -7 3 4 -15 5 -40 3 -34 -2 -43 -7 -39 -18 3 -8 1 -11 -4 -8 -6 3
-10 0 -10 -7 -1 -7 -7 -2 -15 12 -13 23 -14 23 -16 5 -1 -17 -2 -16 -9 5 -5
17 -8 19 -9 7 -1 -9 -13 -23 -28 -30 -33 -14 -44 -27 -38 -44 2 -7 -2 -13 -9
-13 -19 0 -26 21 -15 42 5 10 5 19 0 22 -5 3 -11 -3 -14 -14 -3 -11 -11 -19
-18 -18 -8 2 -15 -8 -17 -22 -4 -22 -2 -23 14 -10 16 13 17 13 12 -1 -5 -12
-1 -15 18 -11 14 2 24 0 24 -7 0 -6 -9 -11 -19 -11 -10 0 -22 -7 -25 -16 -5
-12 -2 -15 10 -10 8 3 22 6 30 6 8 0 14 8 15 18 0 13 2 14 6 2 4 -8 12 -21 20
-28 7 -8 11 -23 8 -33 -7 -20 9 -27 20 -9 3 6 15 10 26 10 18 0 23 -10 20 -37
-2 -12 11 -17 32 -14 4 0 7 -7 7 -17 0 -13 2 -14 9 -4 6 11 10 10 15 -3 3 -10
12 -15 21 -11 8 3 17 0 21 -6 4 -7 3 -8 -4 -4 -7 4 -12 2 -12 -3 0 -11 5 -13
38 -14 9 -1 21 -7 25 -14 4 -7 16 -13 27 -13 10 0 26 -7 35 -16 15 -15 17 -15
36 1 15 15 24 16 42 7 12 -6 96 -13 187 -16 182 -6 237 -17 355 -70 44 -20 88
-36 98 -36 10 0 17 -7 17 -17 0 -15 -2 -16 -10 -3 -8 13 -11 13 -19 1 -5 -7
-13 -11 -19 -7 -6 4 -8 -2 -5 -14 5 -19 -4 -24 -45 -23 -7 1 -21 -11 -31 -26
-16 -23 -17 -35 -9 -96 15 -111 62 -188 159 -260 77 -57 162 -84 264 -86 146
-2 268 64 354 193 35 53 66 78 96 78 11 0 26 9 33 21 7 12 16 18 19 15 4 -3
14 1 23 9 14 13 27 11 114 -16 l99 -31 -6 -48 c-7 -62 -50 -169 -95 -239 -45
-71 -154 -177 -226 -220 -140 -84 -395 -132 -496 -94 -8 4 -18 5 -22 5 -5 -1
-8 7 -8 18 0 20 -11 26 -23 13 -4 -3 -2 -12 4 -20 9 -11 7 -13 -12 -9 -14 2
-23 10 -23 19 1 9 -4 13 -12 10 -8 -3 -11 -9 -8 -14 3 -5 -17 -7 -43 -4 l-48
5 50 -25 c103 -50 231 -71 455 -74 76 -1 140 -6 147 -12 7 -6 18 -9 25 -7 16
6 51 -38 42 -53 -3 -6 0 -15 7 -20 11 -7 10 -9 -4 -9 -10 0 -16 -4 -12 -10 8
-13 -5 -61 -16 -54 -5 3 -9 1 -9 -4 0 -6 -16 -27 -35 -48 -19 -22 -35 -43 -35
-48 0 -4 -7 -5 -15 -2 -9 3 -18 -1 -21 -9 -4 -8 -10 -12 -15 -9 -5 3 -12 -2
-15 -11 -4 -9 -13 -14 -20 -11 -8 3 -14 1 -14 -4 0 -14 -58 -39 -80 -33 -11 3
-20 0 -20 -6 0 -6 -10 -11 -22 -11 -58 -1 -138 -9 -147 -14 -16 -10 -76 -15
-81 -6 -5 8 -86 -2 -125 -15 -17 -6 -17 -5 -5 5 12 9 4 10 -35 5 -27 -4 -56
-13 -64 -21 -13 -12 -18 -11 -35 4 -11 9 -17 12 -14 7 4 -6 -1 -19 -9 -30 -11
-14 -14 -15 -10 -4 4 14 -1 17 -28 16 -19 0 -32 -5 -29 -9 3 -4 1 -8 -5 -8 -5
0 -11 5 -13 11 -2 6 -14 2 -30 -10 -19 -15 -28 -18 -31 -9 -4 10 -6 10 -6 1
-1 -7 -8 -10 -16 -7 -9 4 -18 -1 -21 -11 -4 -9 -12 -14 -19 -11 -8 3 -16 -2
-19 -10 -3 -8 -14 -14 -25 -14 -11 0 -22 -6 -25 -12 -5 -10 -7 -10 -12 0 -8
17 -25 15 -18 -2 6 -15 -6 -18 -128 -40 -43 -7 -78 -10 -78 -6 0 5 -9 6 -19 3
-11 -3 -18 -10 -17 -16 2 -7 1 -9 -1 -4 -3 4 -10 4 -15 1 -6 -4 -8 -2 -5 3 5
7 -5 10 -26 9 -18 0 -35 -8 -39 -16 -5 -12 -7 -12 -7 3 -1 12 -9 17 -28 17
-22 0 -25 -2 -13 -10 13 -8 12 -10 -2 -10 -10 0 -18 5 -18 11 0 10 -40 3 -50
-10 -12 -14 -40 -8 -40 9 0 13 -6 17 -19 13 -10 -2 -25 3 -34 11 -8 9 -22 16
-31 16 -8 0 -21 8 -28 18 -15 19 -44 40 -70 48 -10 4 -18 9 -18 13 0 4 -19 18
-42 31 -24 12 -50 29 -58 35 -22 19 -137 78 -200 104 -30 12 -64 26 -75 31
-98 43 -251 79 -405 96 -30 3 -59 8 -63 11 -4 3 -112 4 -238 4 -221 0 -398
-12 -483 -31 -22 -5 -44 -7 -48 -4 -4 3 -8 0 -8 -6 0 -6 -3 -9 -7 -7 -10 6
-204 -27 -257 -43 -55 -17 -69 -34 -70 -88 -1 -46 -1 -47 33 -50 19 -2 53 1
75 7 23 6 63 13 90 16 27 3 59 8 70 10 12 3 84 12 161 22 128 15 448 20 540 8
17 -2 68 -6 115 -10 148 -11 268 -46 441 -129 83 -39 130 -68 163 -102 26 -25
45 -49 42 -51 -5 -5 2 -15 32 -48 10 -11 10 -19 1 -37 -12 -21 -12 -21 -25 8
-8 16 -12 21 -9 12 3 -12 -2 -19 -13 -20 -9 0 -22 -2 -29 -2 -6 -1 -15 -5 -19
-9 -4 -4 -13 -2 -21 4 -9 9 -13 8 -13 0 0 -18 -18 -13 -23 6 -3 13 -5 12 -6
-5 -1 -20 -4 -21 -22 -12 -11 7 -32 9 -45 6 -13 -4 -24 -2 -24 3 0 4 -11 9
-24 9 -14 0 -54 3 -90 7 -40 4 -66 3 -66 -3 0 -5 -11 -7 -25 -4 -14 2 -25 9
-25 14 0 6 -8 7 -17 3 -27 -11 -73 -14 -73 -4 0 4 -12 4 -27 0 -16 -4 -50 -7
-78 -6 -27 1 -53 -4 -57 -9 -5 -7 -8 -4 -8 7 0 10 -5 15 -10 12 -6 -4 -7 -11
-4 -17 4 -6 0 -6 -13 1 -11 6 -23 7 -27 4 -3 -3 -6 0 -6 8 -1 10 -3 9 -11 -3
-7 -13 -15 -15 -32 -9 -12 5 -34 5 -49 0 -16 -4 -28 -3 -30 2 -2 6 -18 4 -38
-4 -19 -8 -69 -15 -110 -16 -84 -1 -100 -3 -118 -15 -18 -11 -93 -15 -86 -5 9
15 -7 10 -24 -7 -10 -10 -18 -12 -20 -6 -2 6 -10 8 -19 5 -10 -4 -14 -2 -10 4
3 5 0 10 -8 10 -8 0 -15 -7 -15 -14 0 -8 -5 -11 -10 -8 -6 4 -7 12 -3 18 4 8
1 7 -9 -1 -10 -8 -38 -12 -70 -11 -29 1 -55 1 -58 0 -15 -6 -108 -5 -104 0 2
4 -5 9 -16 12 -13 3 -18 1 -13 -5 3 -7 1 -8 -6 -4 -20 13 -61 14 -61 2 0 -6
-4 -5 -9 3 -5 8 -16 11 -25 8 -10 -4 -19 -1 -22 7 -3 8 -13 15 -22 15 -31 0
-56 8 -60 19 -2 7 -14 12 -27 12 -12 0 -28 7 -35 15 -7 9 -19 14 -27 11 -7 -3
-13 1 -13 11 0 14 -2 14 -15 -3 -11 -14 -14 -15 -15 -4 0 8 -5 22 -10 30 -9
13 -11 13 -20 0 -8 -13 -10 -12 -10 4 0 12 -5 16 -14 13 -17 -7 -39 16 -28 28
4 5 1 5 -5 1 -8 -5 -13 -1 -14 11 0 16 -1 16 -9 -2 -5 -11 -9 -14 -9 -7 -1 7
-6 10 -11 7 -6 -3 -10 2 -10 12 0 14 -2 15 -9 5 -12 -20 -21 -19 -33 2 -8 15
-12 16 -19 5 -7 -11 -9 -10 -9 5 0 16 -2 17 -16 5 -15 -12 -16 -11 -10 11 5
21 5 22 -6 9 -9 -14 -16 -15 -35 -6 -13 5 -23 14 -23 18 0 4 -16 6 -34 5 -23
-2 -37 2 -40 11 -3 8 -10 11 -16 8 -6 -3 -13 0 -16 8 -2 7 -10 14 -17 15 -7 0
-21 3 -32 6 -11 2 -25 5 -32 5 -6 1 -15 11 -18 22 -6 17 -9 19 -16 8 -6 -10
-9 -11 -9 -1 0 6 -6 12 -14 12 -8 0 -22 7 -30 16 -9 9 -16 11 -16 4 0 -6 -5
-8 -11 -5 -6 4 -8 14 -5 22 3 8 2 12 -3 8 -5 -3 -12 1 -15 7 -5 11 -7 11 -12
0 -8 -18 -24 -5 -24 21 0 16 -3 18 -12 9 -17 -17 -33 -15 -18 3 9 10 9 15 1
15 -6 0 -11 9 -11 19 0 11 -4 22 -8 25 -5 3 -6 -9 -4 -26 3 -21 1 -29 -7 -24
-6 4 -11 15 -12 24 0 14 -2 13 -9 -3 -7 -17 -9 -16 -9 10 -1 21 -4 26 -10 16
-12 -18 -32 -5 -24 16 4 11 3 14 -5 9 -7 -4 -12 -2 -12 3 0 19 -20 12 -21 -6
0 -14 -2 -13 -9 5 -5 12 -14 22 -20 22 -5 0 -10 7 -10 15 0 8 -4 15 -10 15 -5
0 -19 8 -29 17 -14 12 -17 21 -11 33 6 12 3 21 -11 33 -10 9 -19 12 -19 7 0
-6 -4 -10 -10 -10 -5 0 -10 12 -10 26 0 14 -4 23 -10 19 -5 -3 -10 -1 -10 5 0
7 -7 9 -17 5 -15 -5 -16 -4 -5 6 16 18 15 39 -3 39 -9 0 -12 -6 -8 -17 4 -11
3 -14 -5 -9 -7 4 -9 19 -6 35 5 23 2 30 -15 36 -11 3 -24 4 -29 2 -4 -3 -18 1
-32 9 -18 9 -20 13 -8 14 9 0 19 -4 23 -10 7 -11 35 -2 35 12 0 7 -5 7 -13 0
-10 -8 -20 -5 -39 13 -14 13 -29 21 -32 18 -3 -4 -6 7 -6 23 0 20 -3 25 -9 15
-7 -11 -9 -11 -14 0 -3 8 -6 3 -7 -11 -2 -22 -3 -20 -12 10 -9 31 -11 33 -19
15 -8 -20 -13 -7 -10 25 2 12 0 13 -7 1 -8 -11 -13 -10 -30 5 -37 34 -51 44
-59 43 -20 -3 -27 2 -13 11 13 8 12 10 -2 10 -10 0 -18 5 -18 10 0 6 -11 16
-25 22 -19 8 -22 14 -13 20 9 5 5 8 -11 8 -16 0 -21 4 -18 14 4 10 0 13 -14
11 -11 -2 -18 -1 -15 3 2 4 -2 16 -10 27 -8 10 -14 15 -14 9 0 -20 -20 23 -20
44 0 13 -4 21 -9 17 -6 -3 -13 11 -17 31 -3 19 -13 38 -21 41 -8 3 -12 12 -9
19 3 9 -2 14 -14 14 -11 0 -20 4 -20 8 0 15 -74 41 -120 43 -25 1 -74 -1 -110
-5 -121 -14 -250 -22 -250 -15 0 3 -10 5 -22 4 -27 -2 -118 19 -145 33 -11 6
-23 9 -25 6 -3 -2 -18 2 -34 11 -16 8 -35 15 -41 15 -19 0 -147 68 -171 91
-12 10 -24 19 -28 19 -14 0 -153 125 -163 147 -6 13 -15 22 -20 19 -11 -7 -35
44 -32 68 2 10 -1 16 -6 13 -12 -8 -45 31 -38 44 4 5 11 6 17 3 7 -4 8 -2 4 5
-4 6 -12 9 -17 6 -5 -4 -9 -1 -9 5 0 6 -4 8 -10 5 -5 -3 -10 2 -10 12 0 10 -9
24 -20 31 -11 7 -27 27 -35 45 -22 48 -8 -5 20 -76 82 -206 254 -378 499 -497
171 -84 348 -130 496 -130 l48 0 8 -138 c5 -75 8 -347 7 -604 -2 -423 -5 -490
-28 -705 -44 -415 -55 -504 -80 -658 -21 -137 -45 -303 -60 -430 -4 -27 -8
-61 -10 -75 -16 -106 -25 -209 -30 -360 -3 -96 -8 -195 -10 -220 -2 -25 -7
-79 -11 -120 -3 -41 -7 -77 -10 -81 -2 -3 -6 -39 -9 -80 -4 -41 -9 -81 -12
-89 -3 -8 -6 -49 -7 -92 l-1 -76 149 155 c82 85 246 243 365 350 119 108 236
215 260 237 24 23 40 35 36 27 -4 -7 -35 -39 -68 -70 -144 -133 -225 -209
-273 -256 -28 -27 -109 -107 -180 -176 -71 -69 -140 -139 -154 -155 -44 -51
-154 -178 -173 -199 -11 -11 -33 -40 -50 -65 -17 -24 -37 -51 -43 -60 -62 -75
-83 -102 -107 -136 -15 -21 -62 -86 -103 -144 -42 -58 -88 -123 -101 -144 -14
-22 -29 -44 -34 -50 -79 -97 -341 -507 -440 -689 l-47 -87 4744 0 4743 0 -6
33 c-3 17 -10 37 -14 43 -5 6 -6 14 -2 17 3 4 1 13 -6 20 -6 8 -9 22 -5 31 4
10 1 16 -7 16 -12 0 -12 2 0 9 11 7 10 13 -4 35 -9 14 -15 32 -12 40 3 7 1 18
-4 23 -6 6 -11 25 -11 42 -1 17 -5 34 -10 37 -4 3 -8 19 -8 36 0 16 -6 56 -14
87 -8 31 -17 70 -20 86 -9 49 -16 85 -37 186 -11 52 -22 109 -24 125 -2 16 -4
30 -6 32 -4 6 -18 73 -24 122 -2 19 -9 50 -14 69 -6 19 -9 37 -6 41 2 3 -2 28
-10 53 -8 26 -15 70 -16 97 -2 28 -5 53 -9 55 -3 2 -7 20 -8 40 -2 20 -7 69
-13 108 -6 40 -12 92 -15 117 -3 25 -12 86 -20 135 -9 50 -22 133 -30 185 -8
52 -19 124 -24 160 -6 36 -12 83 -15 105 -3 22 -10 78 -16 125 -6 47 -12 101
-14 120 -12 114 -26 259 -35 355 -5 61 -17 169 -25 240 -17 156 -31 307 -50
555 -8 102 -20 237 -26 300 -6 63 -13 135 -15 160 -2 25 -8 83 -14 130 -5 47
-12 110 -15 140 -15 159 -36 347 -41 363 -3 10 0 26 8 35 12 16 11 16 -7 2
-11 -8 -35 -27 -53 -42 -18 -16 -37 -28 -42 -28 -22 0 -7 24 44 71 29 27 59
63 66 81 7 18 21 42 31 53 28 32 27 57 -2 74 -22 12 -31 13 -58 2 -17 -7 -29
-17 -26 -21 2 -4 -5 -16 -18 -26 l-22 -19 19 23 c11 12 15 22 10 22 -18 0
-110 -59 -156 -100 -26 -23 -55 -40 -64 -38 -19 3 91 98 197 169 83 55 129
106 108 120 -8 6 -41 8 -74 6 -49 -2 -55 -1 -32 7 30 11 37 36 10 37 -11 0
-13 3 -6 6 14 5 18 45 6 56 -6 6 -13 84 -15 155 0 17 -5 32 -10 32 -6 0 -7 11
-4 26 4 14 3 23 -1 21 -4 -3 -9 20 -9 51 -1 32 -11 118 -23 192 -29 178 -52
334 -58 393 -3 26 -8 47 -12 47 -4 0 -8 19 -10 42 -1 23 -5 46 -9 52 -4 6 -7
22 -8 36 -2 26 -18 145 -30 215 -3 22 -10 63 -14 90 -15 101 -9 5 10 -165 25
-215 27 -485 5 -632 -17 -115 -57 -254 -105 -369 -31 -74 -32 -76 -56 -65 -13
6 -24 16 -24 23 0 6 -8 14 -18 17 -25 8 -65 64 -58 81 3 8 -1 18 -8 22 -7 5
-16 21 -20 37 -6 26 -5 28 8 17 10 -9 16 -9 16 -3 0 6 -8 16 -17 21 -12 7 -13
11 -5 11 10 0 10 4 -2 16 -20 20 -21 38 -1 30 8 -3 15 -1 15 4 0 6 -4 10 -9
10 -20 0 8 297 29 310 6 4 11 43 11 97 0 49 5 107 10 129 5 21 12 76 14 122 3
46 7 88 10 93 3 5 1 18 -5 29 -9 16 -8 25 1 36 8 9 8 14 0 14 -7 0 -8 8 -1 25
8 20 6 25 -6 25 -10 0 -12 4 -7 13 8 12 13 174 13 387 0 102 -6 200 -16 263
-7 40 -23 158 -29 212 -20 178 -217 720 -380 1045 -30 61 -55 113 -55 117 1
19 71 -105 147 -257 45 -91 83 -157 83 -147 0 10 -9 35 -20 57 -22 43 -25 54
-11 46 5 -4 7 3 4 14 -3 11 -9 23 -14 26 -5 3 -9 15 -9 27 0 16 -3 18 -9 9 -6
-10 -10 -5 -14 17 -7 35 -6 47 6 43 10 -3 -10 35 -23 43 -6 3 -10 1 -10 -4 0
-6 5 -11 11 -11 5 0 7 -5 3 -11 -8 -14 -24 8 -24 33 0 10 -46 79 -103 155 -89
120 -167 235 -167 247 0 9 -81 148 -98 167 -9 11 -25 30 -34 41 -10 12 -18 28
-18 37 0 9 -98 113 -217 231 l-218 215 -319 200 c-175 110 -323 199 -328 197
-6 -1 -17 5 -25 15 -8 10 -12 13 -8 6 4 -9 -1 -10 -25 -2 -35 13 -41 24 -7 13
49 -15 2 8 -218 106 -299 133 -298 133 -290 121 9 -16 -17 -13 -40 3 -68 47
-336 123 -595 167 -76 13 -331 18 -470 9z m1176 -215 c32 -14 55 -27 52 -30
-2 -3 -23 4 -46 15 -22 11 -45 20 -51 20 -5 0 -13 5 -16 10 -9 15 -2 13 61
-15z m105 -53 c-7 -2 -18 1 -23 6 -8 8 -4 9 13 5 13 -4 18 -8 10 -11z m244
-110 c-3 -3 -11 0 -18 7 -9 10 -8 11 6 5 10 -3 15 -9 12 -12z m-1187 -1405
c-3 -14 -293 -282 -426 -395 -134 -113 -368 -261 -413 -262 -19 0 -103 106
-95 119 3 5 72 46 153 92 203 113 568 328 677 399 97 62 109 67 104 47z
m-2118 -941 c6 -8 10 -25 8 -38 -3 -26 57 -17 -517 -73 -351 -35 -359 -26 -40
44 156 34 295 57 459 74 70 7 78 7 90 -7z m3470 -1214 c0 -5 -7 -9 -15 -9 -8
0 -15 4 -15 9 0 4 7 8 15 8 8 0 15 -4 15 -8z m-1103 -278 c-3 -3 -12 -4 -19
-1 -8 3 -5 6 6 6 11 1 17 -2 13 -5z m-118 -47 c0 -9 -2 -8 -6 1 -2 6 -10 9
-15 6 -7 -4 -8 -2 -4 5 9 13 26 5 25 -12z m1448 1 c-3 -8 -6 -5 -6 6 -1 11 2
17 5 13 3 -3 4 -12 1 -19z m-1467 -52 c0 -3 -4 -8 -10 -11 -5 -3 -10 -1 -10 4
0 6 5 11 10 11 6 0 10 -2 10 -4z m1480 -15 c0 -5 9 -13 20 -16 11 -3 20 -10
20 -15 0 -14 -29 -20 -53 -11 -21 8 -52 1 -47 -10 3 -9 -13 -39 -22 -39 -5 0
-6 6 -1 13 4 6 8 18 10 26 2 14 51 60 66 61 4 0 7 -4 7 -9z m8 -61 c10 0 13
-3 6 -10 -11 -11 -54 -2 -54 12 0 6 7 7 16 4 9 -3 23 -6 32 -6z m1922 -949 c0
-9 -71 -61 -84 -61 -14 0 17 32 49 52 35 21 35 21 35 9z m-6848 -133 c-7 -7
-12 -8 -12 -2 0 6 3 14 7 17 3 4 9 5 12 2 2 -3 -1 -11 -7 -17z m124 -77 c-12
-19 -24 -12 -19 10 4 13 9 17 15 11 6 -6 7 -15 4 -21z m369 -2041 c-16 -11
-24 -20 -17 -20 6 0 12 -10 12 -22 0 -30 48 -173 72 -216 21 -38 22 -46 6 -36
-7 4 -8 3 -4 -5 4 -6 11 -9 15 -7 4 3 21 -22 36 -54 16 -33 32 -60 37 -60 4 0
5 -6 2 -14 -3 -8 0 -17 5 -21 6 -3 9 -11 6 -16 -4 -5 -2 -9 3 -9 9 0 40 -58
62 -118 7 -18 15 -30 18 -27 12 11 37 -46 48 -110 7 -37 18 -56 32 -50 12 4
12 1 -2 -20 -14 -21 -14 -24 -1 -19 10 4 15 0 15 -13 0 -11 8 -35 17 -54 20
-39 24 -59 14 -59 -4 0 -7 -10 -8 -22 0 -13 1 -17 4 -10 3 6 9 12 14 12 13 0
11 -47 -2 -55 -6 -5 -5 -11 5 -18 20 -15 39 -77 24 -77 -6 0 -8 -13 -6 -30 4
-26 1 -30 -18 -30 -13 0 -25 -4 -28 -9 -3 -5 16 -7 42 -5 31 3 40 1 28 -4 -14
-6 -16 -11 -8 -16 7 -4 10 -11 7 -16 -3 -5 3 -15 13 -22 19 -13 44 -72 35 -81
-3 -3 4 -16 16 -28 25 -27 26 -35 5 -43 -23 -9 -6 -28 19 -21 18 6 17 3 -7
-18 -23 -18 -27 -28 -21 -43 4 -10 7 -24 6 -30 0 -6 5 -24 13 -39 8 -16 12
-33 9 -37 -5 -10 -129 247 -140 291 -3 14 -9 31 -13 36 -4 6 -28 62 -55 125
-26 63 -53 122 -60 130 -6 8 -15 24 -19 35 -5 15 -9 16 -15 6 -7 -10 -10 -9
-14 3 -4 9 -4 22 -1 30 3 8 -2 27 -11 43 -15 26 -15 27 -10 3 6 -22 4 -21 -14
8 -12 18 -21 35 -21 38 0 7 -58 135 -70 154 -5 8 -32 60 -59 115 -43 86 -129
230 -119 200 2 -5 58 -120 125 -255 109 -219 141 -289 223 -490 13 -30 43
-102 68 -159 24 -57 46 -117 47 -132 1 -15 9 -35 18 -44 10 -9 17 -25 17 -36
0 -10 4 -19 9 -19 4 0 14 -21 21 -47 7 -27 18 -54 23 -61 10 -12 19 -62 11
-62 -2 0 -10 15 -19 33 -24 53 -52 97 -57 91 -3 -2 -8 10 -12 28 -10 50 -48
128 -59 121 -6 -4 -8 2 -5 15 4 12 3 22 -2 22 -8 0 -45 80 -42 93 1 4 -3 7 -8
7 -6 0 -10 8 -10 18 0 9 -9 34 -20 54 -11 21 -17 45 -13 54 4 11 3 15 -5 10
-6 -3 -14 3 -18 16 -9 29 -42 105 -101 228 -79 168 -108 224 -120 238 -7 7
-13 20 -13 28 0 8 -4 14 -9 14 -5 0 -12 12 -16 27 -3 15 -21 48 -39 73 -18 25
-57 86 -86 135 -29 50 -61 101 -70 115 -24 36 -17 79 20 113 16 15 30 32 30
36 0 5 27 25 60 45 94 58 231 116 155 66z m122 -86 c-6 -20 -13 -32 -14 -27
-4 11 14 63 21 63 2 0 -1 -16 -7 -36z m-551 -273 c-3 -5 -34 -32 -68 -61 l-63
-52 65 61 c64 60 76 69 66 52z m876 -374 c222 -204 331 -254 528 -245 86 4
107 9 173 41 72 33 76 38 87 79 17 63 77 188 90 188 8 0 10 -12 6 -37 -13 -81
-10 -119 12 -141 13 -13 22 -17 23 -9 0 10 2 10 6 0 2 -7 11 -13 19 -13 8 0
14 -7 14 -16 0 -10 6 -14 15 -10 8 3 15 1 15 -4 0 -6 7 -10 16 -10 9 0 13 5 9
13 -4 6 0 4 8 -6 8 -10 24 -19 36 -20 12 -1 21 -8 21 -17 0 -12 2 -13 9 -1 37
58 27 -351 -15 -649 -21 -149 -102 -545 -125 -610 -23 -65 -23 -70 -4 -70 24
0 43 39 65 135 11 50 34 133 49 185 50 164 64 251 81 505 9 140 35 274 57 296
10 10 63 -10 63 -23 0 -5 7 -8 16 -8 8 0 13 -4 9 -9 -3 -5 5 -13 17 -17 13 -4
37 -18 55 -31 18 -14 37 -22 43 -18 5 3 10 1 10 -4 0 -6 11 -11 25 -11 14 0
25 -5 25 -10 0 -6 3 -9 8 -9 20 3 32 -2 30 -13 -2 -7 3 -12 10 -10 6 1 12 -5
12 -14 0 -8 4 -12 10 -9 5 3 12 -6 16 -20 3 -14 10 -25 14 -25 4 0 10 -23 13
-52 7 -56 19 -70 55 -63 15 2 22 0 19 -8 -2 -7 -12 -11 -22 -9 -14 3 -15 1 -4
-11 12 -13 17 -13 39 6 14 12 27 25 30 28 3 3 13 8 23 12 28 10 37 -29 19 -83
-8 -25 -21 -50 -28 -56 -8 -6 -14 -16 -14 -23 0 -6 -5 -11 -12 -11 -6 0 -9 -3
-5 -6 5 -5 -15 -33 -50 -70 -7 -7 -13 -20 -13 -28 0 -9 -4 -16 -10 -16 -5 0
-16 -15 -23 -33 -8 -17 -28 -43 -46 -56 -17 -13 -31 -30 -31 -37 0 -7 -9 -18
-20 -24 -11 -6 -20 -17 -20 -25 0 -7 -9 -17 -20 -20 -11 -3 -20 -13 -20 -21 0
-8 -4 -12 -10 -9 -5 3 -10 1 -10 -5 0 -6 -24 -35 -54 -65 -30 -29 -52 -56 -48
-59 3 -3 -3 -6 -13 -6 -10 0 -15 -3 -12 -7 4 -3 -7 -16 -24 -29 -17 -12 -47
-38 -67 -56 -53 -49 -174 -135 -208 -149 -46 -18 -102 -18 -110 0 -4 9 -6 22
-5 29 1 6 -3 12 -9 12 -5 0 -10 5 -10 11 0 5 4 8 9 4 5 -3 12 -1 16 5 4 6 -5
10 -20 10 -70 0 -149 61 -221 172 -82 127 -456 855 -569 1108 -26 58 -87 185
-136 282 -49 98 -89 180 -89 184 0 3 17 -16 39 -43 21 -27 81 -88 133 -136z
m-7 -407 c3 -5 1 -10 -4 -10 -6 0 -11 5 -11 10 0 6 2 10 4 10 3 0 8 -4 11 -10z
m89 -335 c3 -9 0 -15 -9 -15 -8 0 -15 7 -15 15 0 8 4 15 9 15 5 0 11 -7 15
-15z m70 -95 c-6 -5 -24 21 -24 34 0 6 6 1 14 -10 8 -10 12 -21 10 -24z m1780
-107 c-20 -38 -52 -92 -71 -121 -18 -29 -33 -54 -33 -57 0 -9 -122 -190 -133
-197 -7 -4 -9 -8 -5 -8 4 0 -3 -10 -15 -23 -26 -27 -122 -142 -156 -187 -13
-17 -33 -36 -45 -42 l-21 -11 20 24 c11 13 43 49 70 79 65 72 217 275 240 320
10 19 32 57 50 85 18 27 53 85 79 128 26 42 50 77 53 77 2 0 -12 -30 -33 -67z
m-1824 47 c0 -5 -7 -10 -15 -10 -8 0 -15 5 -15 10 0 6 7 10 15 10 8 0 15 -4
15 -10z m47 -12 c-3 -8 -6 -5 -6 6 -1 11 2 17 5 13 3 -3 4 -12 1 -19z m-32 -7
c-3 -10 -1 -31 5 -46 15 -40 3 -44 -14 -5 -10 26 -11 38 -2 52 14 23 19 23 11
-1z m-6 -201 c30 -57 26 -70 -9 -31 -21 22 -29 39 -25 52 4 10 8 19 10 19 1 0
12 -18 24 -40z m121 -61 c0 -5 -4 -9 -10 -9 -5 0 -10 7 -10 16 0 8 5 12 10 9
6 -3 10 -10 10 -16z m1180 -464 c-24 -25 -46 -45 -49 -45 -3 0 15 20 39 45 24
25 46 45 49 45 3 0 -15 -20 -39 -45z"/>
<path d="M7480 5940 c0 -5 5 -10 11 -10 5 0 7 5 4 10 -3 6 -8 10 -11 10 -2 0
-4 -4 -4 -10z"/>
<path d="M2902 2413 c6 -16 18 -35 26 -43 8 -8 5 4 -7 28 -24 47 -37 57 -19
15z"/>
<path d="M2946 2387 c3 -10 9 -15 12 -12 3 3 0 11 -7 18 -10 9 -11 8 -5 -6z"/>
<path d="M3035 2231 c26 -51 49 -91 51 -88 6 6 -57 133 -81 162 -8 11 5 -22
30 -74z"/>
<path d="M3380 1603 c0 -4 5 -15 10 -23 8 -13 10 -13 10 2 0 9 -4 20 -10 23
-5 3 -10 3 -10 -2z"/>
<path d="M3433 1493 c-7 -2 -13 -12 -12 -21 0 -10 3 -12 5 -5 3 7 12 9 20 6 8
-3 14 1 14 11 0 16 -5 18 -27 9z"/>
<path d="M3447 1433 c4 -11 8 -13 11 -5 2 7 8 10 13 6 5 -3 9 0 9 5 0 6 -9 11
-20 11 -14 0 -18 -5 -13 -17z"/>
<path d="M3501 1424 c0 -11 3 -14 6 -6 3 7 2 16 -1 19 -3 4 -6 -2 -5 -13z"/>
<path d="M3477 1413 c-4 -3 -7 -11 -7 -17 0 -6 5 -5 12 2 6 6 9 14 7 17 -3 3
-9 2 -12 -2z"/>
<path d="M3486 1371 c-3 -5 1 -11 9 -14 9 -4 12 -1 8 9 -6 16 -10 17 -17 5z"/>
<path d="M3519 1328 c-1 -2 -2 -20 -3 -40 -3 -33 -1 -36 16 -27 17 9 17 12 3
25 -19 20 -19 35 0 28 8 -4 15 -1 15 5 0 9 -28 17 -31 9z"/>
<path d="M4426 1585 c-13 -10 -20 -28 -20 -55 -1 -40 -1 -40 -18 -17 l-18 22
0 -26 c0 -49 67 -109 123 -109 35 0 77 36 77 66 0 14 -9 42 -20 64 -33 65 -82
87 -124 55z"/>
<path d="M4366 1146 c3 -7 -2 -16 -12 -20 -12 -5 -15 -14 -10 -36 6 -33 -7
-40 -23 -12 -10 16 -10 16 -11 -1 -1 -53 59 -107 119 -107 36 0 71 40 71 79 0
37 -55 110 -83 111 -5 0 -5 -6 -1 -12 6 -10 4 -10 -7 0 -18 17 -50 16 -43 -2z"/>
<path d="M4281 681 c-16 -14 -20 -27 -17 -60 3 -34 1 -39 -10 -30 -11 9 -14 8
-14 0 0 -26 23 -53 55 -67 84 -35 151 57 92 129 -31 38 -80 51 -106 28z"/>
<path d="M9620 10010 c0 -5 5 -10 10 -10 6 0 10 5 10 10 0 6 -4 10 -10 10 -5
0 -10 -4 -10 -10z"/>
<path d="M9365 9580 c-3 -5 -1 -10 4 -10 6 0 11 5 11 10 0 6 -2 10 -4 10 -3 0
-8 -4 -11 -10z"/>
<path d="M9152 9284 c-14 -15 -7 -17 22 -5 15 6 16 9 5 13 -8 3 -20 -1 -27 -8z"/>
<path d="M8320 9016 c0 -15 38 -57 44 -48 3 5 -6 20 -19 32 -14 13 -25 20 -25
16z"/>
<path d="M9050 7520 c0 -8 12 -49 26 -90 32 -94 98 -334 115 -417 7 -34 15
-61 17 -58 5 4 -16 130 -25 155 -12 30 -33 133 -39 190 -8 75 -18 105 -55 168
-22 37 -39 60 -39 52z"/>
<path d="M2720 7112 c-61 -7 -90 -42 -90 -109 0 -28 8 -43 35 -69 26 -24 35
-41 35 -66 0 -46 17 -103 35 -118 20 -17 22 -14 49 61 18 51 28 65 46 67 22 4
23 2 17 -41 l-6 -45 92 5 c79 5 108 2 193 -20 54 -14 151 -37 214 -51 63 -14
223 -62 355 -107 132 -44 274 -86 315 -93 106 -19 377 -159 446 -231 29 -31
32 -32 85 -25 118 16 147 58 135 195 -7 83 -25 111 -87 142 -24 12 -49 26 -54
30 -10 7 -25 13 -50 17 -5 1 -14 4 -20 8 -5 3 -31 9 -58 12 -26 4 -45 10 -43
14 2 4 -8 8 -23 9 -15 1 -40 7 -56 14 -17 7 -36 11 -44 10 -8 -1 -44 7 -80 18
-776 239 -836 257 -1006 299 -238 60 -368 82 -435 74z"/>
<path d="M9221 6889 c0 -13 4 -33 9 -44 7 -14 8 -8 3 20 -7 46 -13 59 -12 24z"/>
<path d="M1334 6841 c-10 -10 -14 -11 -9 -2 6 10 2 11 -16 5 -13 -4 -31 -8
-40 -8 -9 0 -15 -6 -12 -13 3 -8 -2 -11 -16 -8 -12 2 -21 0 -21 -5 0 -4 -7
-11 -16 -14 -15 -6 -15 -4 -3 11 12 15 11 15 -8 -1 -13 -10 -20 -23 -16 -29 3
-5 1 -7 -4 -4 -6 4 -14 0 -17 -9 -4 -10 -12 -14 -23 -10 -10 4 -14 4 -10 0 4
-4 -7 -20 -23 -36 -17 -16 -28 -33 -25 -38 4 -6 -1 -7 -11 -3 -12 4 -15 3 -10
-5 4 -7 2 -12 -5 -12 -6 0 -9 -8 -6 -20 3 -10 -1 -24 -9 -31 -8 -6 -11 -15 -9
-20 3 -5 -3 -14 -15 -21 -11 -7 -20 -16 -20 -21 0 -4 5 -5 12 -1 8 5 9 2 3
-12 -5 -10 -10 -38 -13 -61 -2 -24 -8 -40 -13 -37 -5 3 -9 0 -9 -5 0 -6 5 -11
10 -11 13 0 9 -32 -5 -42 -6 -5 -4 -12 5 -18 12 -8 12 -10 1 -10 -12 0 -12 -3
1 -17 17 -20 32 -54 30 -65 -1 -5 10 -8 25 -9 16 0 22 -3 16 -6 -7 -2 -13 -8
-13 -12 0 -14 37 -51 44 -44 3 3 6 -1 6 -10 0 -10 4 -17 10 -17 5 0 17 -16 26
-35 19 -41 30 -41 15 -1 -6 14 -8 26 -5 26 3 0 10 -13 15 -30 6 -16 15 -27 20
-24 5 3 9 1 9 -5 0 -5 -8 -12 -17 -14 -10 -2 6 -3 35 -2 29 2 55 -1 58 -6 3
-5 0 -8 -7 -7 -6 2 -14 -3 -17 -11 -2 -8 0 -11 6 -7 6 3 14 1 18 -5 4 -8 9 -7
15 2 7 11 9 11 9 1 0 -7 5 -10 10 -7 6 3 13 -1 16 -9 3 -9 11 -16 16 -16 6 0
8 6 5 14 -3 8 2 16 14 19 12 3 19 0 19 -10 0 -8 -4 -11 -10 -8 -5 3 -10 1 -10
-5 0 -18 24 -6 35 18 5 12 13 22 18 22 4 0 5 -4 2 -10 -3 -5 1 -10 10 -10 10
0 13 5 9 13 -5 8 -2 8 9 -2 15 -12 17 -11 17 4 0 15 2 16 17 4 9 -8 14 -9 10
-3 -4 7 3 14 19 18 40 10 104 40 104 48 0 4 7 5 16 1 9 -3 19 0 24 7 4 6 25
12 46 12 22 0 54 6 72 14 18 7 38 11 45 8 16 -6 47 47 47 81 0 14 5 36 11 47
11 20 12 48 5 113 -2 17 -4 36 -5 43 0 7 -6 10 -13 6 -6 -4 -8 -3 -5 3 8 13
-26 103 -44 114 -8 5 -10 9 -6 9 4 0 -3 11 -17 25 -13 13 -27 34 -31 45 -3 11
-11 20 -16 20 -6 0 -7 4 -4 10 8 12 -25 61 -36 54 -5 -3 -9 0 -9 5 0 6 -6 11
-14 11 -7 0 -25 9 -40 21 -14 11 -36 20 -48 19 -34 -3 -48 -1 -47 8 3 20 -2
31 -15 26 -7 -3 -16 2 -20 11 -3 10 -11 13 -18 9 -16 -10 -88 -13 -88 -4 0 13
-29 7 -46 -9z m270 -60 c4 -5 -3 -7 -14 -4 -23 6 -26 13 -6 13 8 0 17 -4 20
-9z m-407 -673 c-3 -8 -6 -5 -6 6 -1 11 2 17 5 13 3 -3 4 -12 1 -19z"/>
<path d="M9245 6775 c13 -109 29 -205 35 -205 3 0 -2 48 -12 108 -19 114 -30
163 -23 97z"/>
<path d="M7126 6371 c-4 -7 -5 -15 -2 -18 9 -9 19 4 14 18 -4 11 -6 11 -12 0z"/>
<path d="M3752 6354 c2 -16 -4 -19 -38 -20 -22 0 -46 -4 -53 -8 -6 -4 -18 -2
-26 4 -10 8 -15 9 -15 2 0 -6 -9 -13 -19 -17 -28 -8 -71 5 -71 21 0 12 -3 12
-14 2 -10 -9 -11 -15 -2 -21 6 -4 -3 -6 -19 -5 -17 1 -36 -1 -43 -6 -7 -4 -12
-2 -12 3 0 6 5 11 11 11 6 0 4 7 -5 15 -24 25 -34 17 -33 -25 2 -28 6 -39 15
-35 6 2 12 1 12 -4 0 -11 93 -31 145 -31 69 0 143 20 174 46 16 13 34 24 40
24 6 0 11 11 11 25 0 14 -4 25 -10 25 -5 0 -10 -7 -10 -15 0 -8 -4 -15 -10
-15 -5 0 -10 6 -10 14 0 8 -5 18 -11 21 -6 4 -9 0 -7 -11z"/>
<path d="M3370 6340 c0 -5 7 -10 15 -10 8 0 15 5 15 10 0 6 -7 10 -15 10 -8 0
-15 -4 -15 -10z"/>
<path d="M3565 6339 c-4 -6 -5 -13 -2 -16 7 -7 27 6 27 18 0 12 -17 12 -25 -2z"/>
<path d="M7156 6333 c-6 -14 -5 -15 5 -6 7 7 10 15 7 18 -3 3 -9 -2 -12 -12z"/>
<path d="M3370 6310 c0 -5 5 -10 11 -10 5 0 7 5 4 10 -3 6 -8 10 -11 10 -2 0
-4 -4 -4 -10z"/>
<path d="M7227 6284 c-3 -3 -3 -13 0 -21 5 -12 7 -12 14 -1 15 23 4 40 -14 22z"/>
<path d="M7294 6243 c3 -6 0 -13 -6 -16 -7 -2 -10 -8 -5 -12 4 -5 13 -3 19 3
9 9 9 15 -1 25 -9 8 -12 8 -7 0z"/>
<path d="M6128 6113 c7 -3 16 -2 19 1 4 3 -2 6 -13 5 -11 0 -14 -3 -6 -6z"/>
<path d="M5798 6093 c7 -3 16 -2 19 1 4 3 -2 6 -13 5 -11 0 -14 -3 -6 -6z"/>
<path d="M5975 6080 c-13 -6 -15 -9 -5 -9 8 0 22 4 30 9 18 12 2 12 -25 0z"/>
<path d="M5740 6072 c0 -5 -8 -9 -17 -8 -10 0 -17 -4 -16 -11 2 -7 -3 -10 -10
-8 -15 6 -63 -36 -70 -61 -4 -18 -5 -18 -6 1 -1 18 -3 18 -16 -5 -20 -34 -38
-73 -39 -83 -1 -4 -6 -11 -12 -15 -6 -4 -14 -19 -17 -33 -7 -29 -67 -99 -84
-99 -6 0 -14 -6 -16 -12 -4 -10 -6 -10 -6 0 -1 8 -6 10 -13 5 -18 -10 -122
-15 -221 -10 -32 2 -61 -1 -63 -5 -3 -5 -10 -6 -15 -3 -5 4 -9 2 -9 -2 0 -5
-9 -9 -19 -10 -22 -2 -91 -43 -107 -64 -14 -17 -41 -99 -38 -116 1 -7 2 -24 3
-37 1 -28 88 -139 102 -131 5 4 9 2 9 -2 0 -16 130 -71 130 -55 0 4 5 0 10 -9
6 -10 21 -16 42 -15 18 1 36 -2 39 -6 8 -13 132 -19 168 -8 21 6 31 5 31 -2 0
-7 5 -6 14 1 10 8 16 9 21 1 3 -6 11 -7 17 -4 6 4 32 8 57 9 51 2 111 22 111
36 0 5 7 9 15 9 13 0 20 18 16 42 0 4 7 4 17 1 9 -3 14 -3 10 2 -4 4 -3 14 3
21 6 7 13 39 16 71 2 32 9 73 13 91 5 19 6 40 3 48 -3 8 -1 14 4 14 5 0 9 19
8 42 -1 23 2 61 5 84 4 28 3 41 -3 37 -6 -4 -8 1 -4 11 4 10 7 21 7 24 0 4 5
0 11 -8 8 -12 9 -9 5 13 -4 15 -2 27 3 27 5 0 7 17 5 38 -3 26 -1 31 4 18 8
-19 9 -19 14 2 3 11 1 23 -6 25 -6 3 1 8 17 12 33 9 36 25 5 26 -13 0 -18 3
-12 5 11 5 11 71 -1 82 -3 4 -10 0 -15 -8 -6 -8 -10 -10 -10 -5 0 6 -17 17
-37 25 -21 8 -41 16 -45 18 -5 2 -8 -1 -8 -6z"/>
<path d="M5810 6069 c0 -5 5 -7 10 -4 6 3 10 8 10 11 0 2 -4 4 -10 4 -5 0 -10
-5 -10 -11z"/>
<path d="M6935 6000 c-3 -5 1 -10 9 -10 9 0 16 5 16 10 0 6 -4 10 -9 10 -6 0
-13 -4 -16 -10z"/>
<path d="M7193 5971 c1 -14 9 -26 17 -28 10 -3 11 -2 4 4 -7 4 -14 17 -17 28
-5 16 -5 15 -4 -4z"/>
<path d="M7332 5960 c0 -14 2 -19 5 -12 2 6 2 18 0 25 -3 6 -5 1 -5 -13z"/>
<path d="M5885 5920 c-3 -6 1 -7 9 -4 18 7 21 14 7 14 -6 0 -13 -4 -16 -10z"/>
<path d="M6035 5900 c-3 -5 -1 -10 4 -10 6 0 11 5 11 10 0 6 -2 10 -4 10 -3 0
-8 -4 -11 -10z"/>
<path d="M5560 5260 c0 -5 5 -10 10 -10 6 0 10 5 10 10 0 6 -4 10 -10 10 -5 0
-10 -4 -10 -10z"/>
<path d="M6638 4233 c7 -3 16 -2 19 1 4 3 -2 6 -13 5 -11 0 -14 -3 -6 -6z"/>
<path d="M6436 4201 c-4 -5 -2 -12 3 -15 5 -4 12 -2 15 3 4 5 2 12 -3 15 -5 4
-12 2 -15 -3z"/>
<path d="M1596 1533 c-6 -14 -5 -15 5 -6 7 7 10 15 7 18 -3 3 -9 -2 -12 -12z"/>
<path d="M1617 1509 c7 -7 15 -10 18 -7 3 3 -2 9 -12 12 -14 6 -15 5 -6 -5z"/>
<path d="M1603 1473 c5 -34 -8 -46 -16 -15 -4 13 -5 11 -6 -5 -1 -19 5 -23 32
-25 27 -1 26 -2 -13 -8 -25 -4 -37 -8 -27 -8 21 -2 22 -18 2 -38 -10 -10 -15
-11 -15 -3 0 9 -4 8 -15 -1 -8 -7 -15 -20 -14 -29 0 -12 2 -12 8 3 5 14 10 16
15 8 4 -7 4 -18 1 -24 -4 -7 16 12 44 42 27 30 48 61 46 68 -3 8 -5 22 -5 33
0 10 -5 19 -11 19 -5 0 -7 -6 -4 -12 4 -7 -1 -4 -10 7 -16 19 -16 19 -12 -12z"/>
<path d="M1531 1308 c-1 -11 -9 -18 -20 -18 -18 0 -23 -21 -9 -35 8 -9 40 45
34 58 -2 7 -5 4 -5 -5z"/>
<path d="M1466 1225 c-9 -14 -14 -25 -10 -25 4 0 0 -8 -7 -17 -13 -16 -12 -17
3 -4 10 7 15 17 12 22 -3 5 1 12 9 15 7 2 14 11 14 19 0 20 -2 19 -21 -10z"/>
<path d="M1416 1143 c-6 -14 -5 -15 5 -6 7 7 10 15 7 18 -3 3 -9 -2 -12 -12z"/>
<path d="M1383 1098 c-15 -20 -25 -38 -20 -38 3 0 12 11 21 25 17 26 16 35 -1
13z"/>
<path d="M1339 1033 c-13 -16 -12 -17 4 -4 16 13 21 21 13 21 -2 0 -10 -8 -17
-17z"/>
<path d="M1119 713 c-13 -16 -12 -17 4 -4 16 13 21 21 13 21 -2 0 -10 -8 -17
-17z"/>
<path d="M1029 583 c-13 -16 -12 -17 4 -4 16 13 21 21 13 21 -2 0 -10 -8 -17
-17z"/>
<path d="M830 269 c-12 -16 -20 -32 -17 -35 2 -3 14 11 25 31 26 43 21 46 -8
4z"/>
<path d="M770 222 c0 -4 9 -8 20 -9 11 -1 18 2 15 8 -7 11 -35 12 -35 1z"/>
<path d="M750 155 c9 -11 -8 -51 -25 -57 -5 -2 -10 -12 -10 -22 -1 -11 -14
-29 -29 -41 -24 -19 -26 -23 -10 -29 9 -3 18 -5 19 -4 1 2 20 40 43 85 38 73
40 82 23 80 -13 -1 -17 -5 -11 -12z"/>
<path d="M680 60 c0 -5 5 -10 10 -10 6 0 10 5 10 10 0 6 -4 10 -10 10 -5 0
-10 -4 -10 -10z"/>
</g>
</svg>
